#!OML:ASF X:\für Bonn\!DataBase\2005_08_11_Bastian_Final\c3d\Bastian.ASF
:FULLY-SPECIFIED
:DEGREES
185
root -3.32592 16.6069 -1.4101 532.827 42.9968 -175.374
lowerback 29.0937 -5.04729 0.684355
upperback 18.1192 -2.37858 3.65305
thorax 4.75618 0.179173 4.36363
lowerneck -15.8463 -12.8522 -22.085
upperneck -8.19189 -13.2849 36.0852
head 5.27103 -4.99254 14.729
rclavicle -1.94809e-014 -1.70955e-014
rhumerus -28.5691 2.76534 -82.48
rradius 29.8745
rwrist 4.23758
rhand -14.1219 3.97031
rfingers 7.12502
rthumb 12.0115 -25.665
lclavicle -1.94809e-014 -1.70955e-014
lhumerus -2.4229 -39.6255 94.8564
lradius 63.8048
lwrist 5.85755
lhand -17.864 -8.58275
lfingers 7.12502
lthumb 8.40157 21.2301
rfemur -28.9935 9.82187 17.0819
rtibia 30.2007
rfoot -16.9412 -9.07528
rtoes -25.1497
lfemur 12.5433 2.17867 -14.8582
ltibia 38.5951
lfoot -26.9061 -6.56847
ltoes -13.6637
186
root -3.22755 16.5957 -1.47064 532.923 42.8906 -175.322
lowerback 29.2215 -5.14456 0.873144
upperback 18.1135 -2.43523 3.6924
thorax 4.68803 0.171962 4.31842
lowerneck -15.8842 -12.8261 -21.936
upperneck -8.22936 -13.2447 35.9737
head 5.22532 -4.97438 14.6551
rclavicle 1.43125e-014 -2.66371e-014
rhumerus -28.4119 2.96557 -82.4678
rradius 30.2906
rwrist 4.20495
rhand -14.115 3.91709
rfingers 7.12502
rthumb 12.0182 -25.7178
lclavicle 1.43125e-014 -2.66371e-014
lhumerus -2.35225 -39.6133 94.8942
lradius 63.7565
lwrist 5.91154
lhand -17.8047 -8.52656
lfingers 7.12502
lthumb 8.45878 21.284
rfemur -28.8752 9.57242 17.2879
rtibia 30.3539
rfoot -16.3911 -8.64361
rtoes -25.5187
lfemur 12.8252 2.14503 -14.645
ltibia 38.6501
lfoot -26.8823 -6.5231
ltoes -14.9206
187
root -3.12767 16.5872 -1.53058 533.037 42.786 -175.236
lowerback 29.3607 -5.24357 1.05294
upperback 18.1033 -2.49404 3.75615
thorax 4.6121 0.161147 4.30676
lowerneck -15.8888 -12.778 -21.8176
upperneck -8.27151 -13.1727 35.8683
head 5.16688 -4.9442 14.5989
rclavicle 3.85642e-014 -6.04305e-014
rhumerus -28.2746 3.19542 -82.4317
rradius 30.7652
rwrist 4.12868
rhand -14.121 3.86506
rfingers 7.12502
rthumb 12.0125 -25.7702
lclavicle 3.85642e-014 -6.04305e-014
lhumerus -2.32799 -39.5714 94.9722
lradius 63.7343
lwrist 5.99474
lhand -17.7376 -8.48745
lfingers 7.12502
lthumb 8.52356 21.3205
rfemur -28.8123 9.17831 17.564
rtibia 30.6418
rfoot -15.8204 -8.14666
rtoes -25.4906
lfemur 13.1325 2.07572 -14.4144
ltibia 38.6682
lfoot -26.8205 -6.45904
ltoes -16.1467
188
root -3.02592 16.5808 -1.59084 533.141 42.7052 -175.179
lowerback 29.4641 -5.32537 1.20517
upperback 18.1105 -2.53778 3.81219
thorax 4.57326 0.155961 4.29808
lowerneck -15.9651 -12.7437 -21.6534
upperneck -8.27682 -13.1236 35.7381
head 5.13044 -4.91777 14.516
rclavicle -2.14687e-014 3.02153e-014
rhumerus -28.0991 3.42229 -82.3949
rradius 31.2612
rwrist 3.99895
rhand -14.141 3.82441
rfingers 7.12502
rthumb 11.9931 -25.812
lclavicle -2.14687e-014 3.02153e-014
lhumerus -2.29488 -39.5685 94.9855
lradius 63.7285
lwrist 6.06658
lhand -17.7204 -8.45949
lfingers 7.12502
lthumb 8.54018 21.3478
rfemur -28.8234 8.66184 17.8597
rtibia 31.0472
rfoot -15.2184 -7.60923
rtoes -25.3039
lfemur 13.4277 2.01785 -14.2081
ltibia 38.6769
lfoot -26.7207 -6.3462
ltoes -17.4052
189
root -2.92207 16.5754 -1.65123 533.26 42.611 -175.097
lowerback 29.57 -5.41207 1.38145
upperback 18.1034 -2.58443 3.8658
thorax 4.51433 0.150644 4.27356
lowerneck -15.9689 -12.6846 -21.4505
upperneck -8.31496 -13.0481 35.6001
head 5.06086 -4.8873 14.429
rclavicle -4.41302e-014 9.78021e-014
rhumerus -27.9656 3.64972 -82.3737
rradius 31.7523
rwrist 3.80653
rhand -14.2025 3.86631
rfingers 7.12502
rthumb 11.9338 -25.7735
lclavicle -4.41302e-014 9.78021e-014
lhumerus -2.36416 -39.5305 95.0474
lradius 63.7409
lwrist 6.10129
lhand -17.6616 -8.48302
lfingers 7.12502
lthumb 8.59695 21.3219
rfemur -28.8571 8.13765 18.1756
rtibia 31.54
rfoot -14.5795 -7.15255
rtoes -25.4582
lfemur 13.73 1.92713 -13.9832
ltibia 38.6918
lfoot -26.5837 -6.20606
ltoes -18.5874
